<svg width="965" height="981" viewBox="0 0 965 981" fill="none" xmlns="http://www.w3.org/2000/svg">
<path d="M290.496 401.727C291.861 402.41 294.25 394.558 295.616 384.659C299.371 357.009 309.612 311.609 319.511 281.228C332.483 241.289 366.618 175.408 391.196 142.638C416.798 108.503 464.246 62.0776 476.535 59.0054C489.848 55.592 500.43 62.7606 532.517 95.189C596.692 160.729 647.554 261.43 664.28 356.327C673.155 408.554 671.107 407.189 698.416 381.246L721.628 359.399L713.094 323.556C685.103 209.202 622.293 100.651 547.195 36.1353C534.565 25.5534 516.815 12.9232 507.598 8.14404C480.973 -5.16876 470.39 -3.12085 435.914 21.4565C393.586 51.8372 338.627 118.402 305.857 178.822C280.256 226.27 251.923 306.83 247.144 344.72C245.437 360.081 245.437 360.423 266.601 380.563C278.207 391.486 288.789 401.044 290.496 401.727ZM546.172 948.579C775.904 831.494 913.811 675.494 956.822 483.994C967.063 437.228 967.745 369.298 958.528 340.965C946.581 305.465 928.489 289.762 899.133 289.762C878.651 289.762 857.146 299.661 821.303 325.604C678.958 428.011 551.291 602.444 496.674 768.342C489.506 790.53 482.338 808.621 480.972 808.623C479.607 808.623 476.534 802.136 474.486 793.944C451.274 714.408 394.268 601.42 335.896 520.86C271.039 431.083 165.901 330.383 106.846 301.027C37.5514 266.892 0.00269993 303.758 0.00261361 405.823C-0.338742 492.868 32.772 591.862 90.8024 678.908C141.323 754.689 227.687 836.272 319.511 894.644C350.234 914.101 432.842 958.819 460.833 971.108L482.679 980.666L546.172 948.579ZM446.154 899.764C443.423 902.495 378.907 867.677 340.334 842.758C223.249 766.295 150.198 689.148 100.019 588.449C72.0281 532.808 58.3739 485.359 53.2536 429.718C50.5228 399.679 55.6433 363.155 63.8356 354.279C66.9078 350.524 71.3461 347.792 73.3942 347.792C92.1693 348.135 156.002 397.631 210.619 453.955C305.857 552.948 372.421 661.158 417.138 790.873C431.816 833.883 448.884 897.031 446.154 899.764ZM635.265 835.249C594.985 861.874 519.886 902.837 516.814 899.423C514.084 896.691 542.758 798.04 558.801 755.03C600.105 643.748 664.28 544.755 755.081 453.613C796.726 411.285 841.444 373.736 869.093 357.692C878.651 352.23 888.892 347.792 891.965 347.792C903.229 347.793 909.714 363.836 911.08 395.923C913.128 436.886 906.984 474.777 890.94 522.908C850.319 645.454 767.028 747.179 635.265 835.249Z" fill="white"/>
</svg>
